HIERARCHY
ROOT Joint1
{
	OFFSET 0.000000 0.000000 0.000000
	CHANNELS 6 Xposition Yposition Zposition Xrotation Yrotation Zrotation
	JOINT Joint2
	{
		OFFSET -0.000000 0.000000 1.456275
		CHANNELS 6 Xposition Yposition Zposition Xrotation Yrotation Zrotation
		JOINT Joint3
		{
			OFFSET -0.000000 0.000002 1.471446
			CHANNELS 6 Xposition Yposition Zposition Xrotation Yrotation Zrotation
			JOINT Joint4
			{
				OFFSET 0.625745 0.000000 0.917755
				CHANNELS 6 Xposition Yposition Zposition Xrotation Yrotation Zrotation
				JOINT Joint5
				{
					OFFSET -0.629534 0.000001 0.940221
					CHANNELS 6 Xposition Yposition Zposition Xrotation Yrotation Zrotation
					JOINT Joint6
					{
						OFFSET -0.000001 0.113772 1.960660
						CHANNELS 6 Xposition Yposition Zposition Xrotation Yrotation Zrotation
						JOINT Joint7
						{
							OFFSET -0.669733 -0.113771 0.388340
							CHANNELS 6 Xposition Yposition Zposition Xrotation Yrotation Zrotation
							End Site
							{
								OFFSET 0.005509 0.005509 0.438980
							}
						}
					}
				}
			}
		}
	}
}
MOTION
Frames: 19
Frame Time: 0.041667
0.000000 0.000000 0.000000 -0.000000 1.019410 -0.009346 -0.000000 -0.000000 1.456275 0.000000 -44.977083 -0.000000 -0.000000 0.000002 1.471446 0.000000 -1.133461 -0.061426 0.625745 0.000000 0.917755 0.000004 134.994249 -0.000001 -0.629534 0.000001 0.940221 -0.000000 1.709736 0.015725 -0.000001 0.113772 1.960661 -88.307980 89.956358 -0.002941 -0.669733 -0.113771 0.388340 -0.704124 3.566197 134.905170 
0.000000 0.000000 0.000000 -0.000000 1.019410 -0.011667 -0.000000 0.000000 1.456275 0.000000 -44.966018 -0.000000 -0.000000 0.000002 1.471446 0.000000 -1.133463 -0.163454 0.625745 0.000000 0.917754 0.000004 134.899760 -0.000001 -0.629534 0.000001 0.940221 -0.000000 1.709736 0.111349 -0.000001 0.113772 1.960660 -88.305774 89.902153 -0.001454 -0.669733 -0.113771 0.388339 -0.700574 3.566184 134.705373 
0.000000 0.000000 0.000000 -0.000000 1.019410 -0.015543 -0.000000 0.000000 1.456275 0.000000 -44.947545 -0.000000 -0.000000 0.000002 1.471446 -0.000000 -1.133457 -0.333867 0.625744 0.000000 0.917755 0.000003 134.741956 -0.000001 -0.629534 0.000001 0.940221 0.000000 1.709737 0.271068 -0.000000 0.113772 1.960661 -88.304852 89.811619 -0.000709 -0.669733 -0.113771 0.388339 -0.694647 3.566136 134.371623 
0.000000 0.000000 0.000000 -0.000000 1.019410 -0.020982 -0.000000 -0.000000 1.456275 0.000000 -44.921625 0.000000 -0.000000 0.000002 1.471446 -0.000000 -1.133456 -0.572967 0.625744 0.000000 0.917755 0.000004 134.520521 -0.000001 -0.629534 0.000001 0.940221 -0.000000 1.709737 0.495161 -0.000001 0.113772 1.960660 -88.304470 89.684591 -0.000396 -0.669733 -0.113771 0.388340 -0.686331 3.566012 133.903372 
0.000000 0.000000 0.000000 -0.000000 1.019410 -0.027990 -0.000000 -0.000000 1.456275 0.000000 -44.888222 -0.000000 -0.000000 0.000002 1.471446 0.000000 -1.133460 -0.881053 0.625744 0.000000 0.917755 0.000004 134.235210 -0.000001 -0.629533 0.000001 0.940221 -0.000000 1.709736 0.783912 -0.000002 0.113772 1.960661 -88.304265 89.520913 -0.000258 -0.669733 -0.113771 0.388341 -0.675618 3.565751 133.300035 
0.000000 0.000000 0.000000 -0.000000 1.019410 -0.036574 -0.000000 0.000000 1.456275 0.000000 -44.847306 -0.000000 -0.000000 0.000002 1.471446 0.000000 -1.133462 -1.258426 0.625744 0.000000 0.917754 0.000004 133.885723 -0.000001 -0.629534 0.000001 0.940221 0.000000 1.709736 1.137602 -0.000001 0.113772 1.960660 -88.304162 89.320419 -0.000180 -0.669733 -0.113771 0.388340 -0.662499 3.565278 132.560981 
0.000000 0.000000 0.000000 -0.000000 1.019410 -0.046741 -0.000000 -0.000000 1.456275 -0.000000 -44.798849 -0.000000 -0.000000 0.000002 1.471446 -0.000000 -1.133461 -1.705387 0.625745 0.000000 0.917755 0.000004 133.471814 -0.000001 -0.629534 0.000001 0.940221 0.000000 1.709736 1.556512 -0.000001 0.113772 1.960660 -88.304087 89.082961 -0.000133 -0.669733 -0.113771 0.388340 -0.646971 3.564499 131.685651 
0.000000 0.000000 0.000000 -0.000000 1.019410 -0.058497 -0.000000 0.000000 1.456275 0.000000 -44.742814 0.000000 -0.000000 0.000002 1.471445 -0.000000 -1.133460 -2.222236 0.625745 0.000000 0.917755 0.000004 132.993154 -0.000001 -0.629534 0.000001 0.940221 0.000000 1.709736 2.040923 -0.000001 0.113772 1.960661 -88.304046 88.808374 -0.000104 -0.669733 -0.113771 0.388339 -0.629033 3.563303 130.673472 
0.000000 0.000000 0.000000 -0.000000 1.019410 -0.071850 -0.000000 -0.000000 1.456275 0.000000 -44.679170 0.000000 -0.000000 0.000002 1.471446 0.000000 -1.133460 -2.809275 0.625744 0.000000 0.917755 0.000003 132.449512 -0.000001 -0.629534 0.000001 0.940221 -0.000000 1.709736 2.591119 -0.000001 0.113772 1.960660 -88.304005 88.496493 -0.000086 -0.669733 -0.113771 0.388339 -0.608687 3.561562 129.523842 
0.000000 0.000000 0.000000 -0.000000 1.019410 -0.086807 -0.000000 -0.000000 1.456275 0.000000 -44.607877 -0.000000 -0.000000 0.000002 1.471445 -0.000000 -1.133458 -3.466802 0.625745 0.000000 0.917755 0.000003 131.840601 -0.000001 -0.629534 0.000001 0.940221 0.000000 1.709736 3.207380 -0.000000 0.113772 1.960660 -88.303991 88.147163 -0.000065 -0.669733 -0.113771 0.388341 -0.585946 3.559129 128.236146 
0.000000 0.000000 0.000000 -0.000000 1.019410 -0.103408 -0.000000 0.000000 1.456275 0.000000 -44.528756 -0.000000 -0.000001 0.000002 1.471446 -0.000000 -1.133462 -4.196655 0.625745 0.000000 0.917756 0.000004 131.164713 -0.000001 -0.629533 0.000001 0.940221 0.000000 1.709737 3.891428 -0.000001 0.113772 1.960660 -88.303971 87.759414 -0.000049 -0.669733 -0.113771 0.388340 -0.560775 3.555830 126.806833 
0.000000 0.000000 0.000000 -0.000000 1.019410 -0.121837 -0.000000 0.000000 1.456275 -0.000000 -44.440916 0.000000 -0.000000 0.000002 1.471446 -0.000000 -1.133458 -5.006813 0.625744 0.000000 0.917755 0.000004 130.414430 -0.000001 -0.629534 0.000001 0.940221 -0.000001 1.709737 4.650742 -0.000001 0.113772 1.960661 -88.303957 87.328989 -0.000048 -0.669733 -0.113771 0.388340 -0.532941 3.551438 125.220262 
0.000000 0.000000 0.000000 -0.000000 1.019410 -0.142308 -0.000000 -0.000000 1.456275 0.000000 -44.343343 0.000000 -0.000001 0.000002 1.471446 -0.000000 -1.133458 -5.906796 0.625745 0.000000 0.917754 0.000003 129.580983 -0.000001 -0.629533 0.000001 0.940221 -0.000000 1.709737 5.494242 -0.000001 0.113772 1.960661 -88.303950 86.850841 -0.000036 -0.669733 -0.113771 0.388340 -0.502176 3.545657 123.457800 
0.000000 0.000000 0.000000 -0.000000 1.019410 -0.165039 -0.000000 0.000000 1.456275 0.000000 -44.235003 0.000000 -0.000000 0.000002 1.471446 -0.000000 -1.133464 -6.906119 0.625744 0.000000 0.917755 0.000004 128.655533 -0.000001 -0.629534 0.000001 0.940221 -0.000000 1.709737 6.430848 -0.000000 0.113772 1.960660 -88.303923 86.319931 -0.000025 -0.669733 -0.113771 0.388339 -0.468244 3.538137 121.500787 
0.000000 0.000000 0.000000 -0.000000 1.019410 -0.190036 -0.000000 0.000000 1.456275 0.000000 -44.115854 0.000000 -0.000001 0.000002 1.471446 -0.000000 -1.133465 -8.005046 0.625744 0.000000 0.917755 0.000002 127.637835 -0.000001 -0.629534 0.000001 0.940221 0.000000 1.709736 7.460807 -0.000001 0.113772 1.960660 -88.303930 85.736100 -0.000028 -0.669733 -0.113771 0.388340 -0.431251 3.528535 119.348758 
0.000000 0.000000 0.000000 -0.000000 1.019410 -0.216462 -0.000000 -0.000000 1.456275 0.000000 -43.989902 0.000000 -0.000000 0.000002 1.471446 -0.000000 -1.133460 -9.166821 0.625745 0.000000 0.917755 0.000001 126.561944 -0.000002 -0.629534 0.000001 0.940221 -0.000002 1.709737 8.549670 -0.000002 0.113772 1.960661 -88.303937 85.118869 -0.000015 -0.669733 -0.113771 0.388340 -0.392565 3.516889 117.073691 
0.000000 0.000000 0.000000 -0.000000 1.019410 -0.243272 -0.000000 -0.000000 1.456275 0.000000 -43.862116 -0.000000 -0.000000 0.000002 1.471446 -0.000000 -1.133460 -10.345437 0.625744 0.000000 0.917755 0.000004 125.470452 -0.000001 -0.629534 0.000001 0.940221 -0.000000 1.709736 9.654315 -0.000000 0.113772 1.960661 -88.303923 84.492698 -0.000018 -0.669733 -0.113771 0.388341 -0.353825 3.503512 114.765688 
0.000000 0.000000 0.000000 -0.000000 1.019410 -0.269639 -0.000000 0.000000 1.456275 0.000000 -43.736440 0.000000 -0.000000 0.000002 1.471446 -0.000000 -1.133461 -11.504609 0.625745 0.000000 0.917755 0.000004 124.396979 -0.000001 -0.629534 0.000001 0.940221 0.000000 1.709736 10.740737 -0.000002 0.113772 1.960660 -88.303923 83.876854 -0.000030 -0.669733 -0.113771 0.388340 -0.316280 3.488847 112.495804 
0.000000 0.000000 0.000000 -0.000000 1.019410 -0.295623 -0.000000 -0.000000 1.456275 0.000000 -43.612588 -0.000000 -0.000000 0.000002 1.471446 -0.000000 -1.133460 -12.646936 0.625744 0.000000 0.917755 0.000006 123.339092 -0.000001 -0.629534 0.000001 0.940221 0.000001 1.709737 11.811374 -0.000002 0.113772 1.960661 -88.303903 83.269964 -0.000028 -0.669733 -0.113771 0.388340 -0.279878 3.472960 110.258945 
